<mxfile host="app.diagrams.net" modified="2023-03-21T09:04:00.469Z" agent="5.0 (X11; Linux x86_64) AppleWebKit/537.36 (KHTML, like Gecko) Chrome/111.0.0.0 Safari/537.36" etag="gYTKxlMij6pwGHWjwim3" version="21.0.8" type="github">
  <diagram id="C5RBs43oDa-KdzZeNtuy" name="Page-1">
    <mxGraphModel dx="5394" dy="3537" grid="1" gridSize="10" guides="1" tooltips="1" connect="1" arrows="1" fold="1" page="1" pageScale="1" pageWidth="827" pageHeight="1169" math="0" shadow="0">
      <root>
        <mxCell id="WIyWlLk6GJQsqaUBKTNV-0" />
        <mxCell id="WIyWlLk6GJQsqaUBKTNV-1" parent="WIyWlLk6GJQsqaUBKTNV-0" />
        <mxCell id="uNaetu2Uj4Z3SI4mFYwL-152" style="edgeStyle=orthogonalEdgeStyle;rounded=0;orthogonalLoop=1;jettySize=auto;html=1;entryX=0.495;entryY=0.194;entryDx=0;entryDy=0;entryPerimeter=0;" edge="1" parent="WIyWlLk6GJQsqaUBKTNV-1" source="uNaetu2Uj4Z3SI4mFYwL-76" target="uNaetu2Uj4Z3SI4mFYwL-100">
          <mxGeometry relative="1" as="geometry" />
        </mxCell>
        <mxCell id="uNaetu2Uj4Z3SI4mFYwL-76" value="MAIN" style="strokeWidth=2;html=1;shape=mxgraph.flowchart.start_1;whiteSpace=wrap;" vertex="1" parent="WIyWlLk6GJQsqaUBKTNV-1">
          <mxGeometry x="-1320" y="10" width="100" height="60" as="geometry" />
        </mxCell>
        <mxCell id="uNaetu2Uj4Z3SI4mFYwL-82" value="" style="edgeStyle=orthogonalEdgeStyle;rounded=0;orthogonalLoop=1;jettySize=auto;html=1;" edge="1" parent="WIyWlLk6GJQsqaUBKTNV-1" source="uNaetu2Uj4Z3SI4mFYwL-78" target="uNaetu2Uj4Z3SI4mFYwL-81">
          <mxGeometry relative="1" as="geometry" />
        </mxCell>
        <mxCell id="uNaetu2Uj4Z3SI4mFYwL-168" style="edgeStyle=orthogonalEdgeStyle;rounded=0;orthogonalLoop=1;jettySize=auto;html=1;entryX=1;entryY=0.5;entryDx=0;entryDy=0;entryPerimeter=0;" edge="1" parent="WIyWlLk6GJQsqaUBKTNV-1" source="uNaetu2Uj4Z3SI4mFYwL-78" target="uNaetu2Uj4Z3SI4mFYwL-99">
          <mxGeometry relative="1" as="geometry" />
        </mxCell>
        <mxCell id="uNaetu2Uj4Z3SI4mFYwL-78" value="" style="strokeWidth=2;html=1;shape=mxgraph.flowchart.decision;whiteSpace=wrap;" vertex="1" parent="WIyWlLk6GJQsqaUBKTNV-1">
          <mxGeometry x="-1320" y="210" width="100" height="100" as="geometry" />
        </mxCell>
        <mxCell id="uNaetu2Uj4Z3SI4mFYwL-84" value="" style="edgeStyle=orthogonalEdgeStyle;rounded=0;orthogonalLoop=1;jettySize=auto;html=1;" edge="1" parent="WIyWlLk6GJQsqaUBKTNV-1" source="uNaetu2Uj4Z3SI4mFYwL-81" target="uNaetu2Uj4Z3SI4mFYwL-83">
          <mxGeometry relative="1" as="geometry" />
        </mxCell>
        <mxCell id="uNaetu2Uj4Z3SI4mFYwL-81" value="OUTPUT&lt;br&gt;MENU" style="shape=parallelogram;perimeter=parallelogramPerimeter;whiteSpace=wrap;html=1;fixedSize=1;strokeWidth=2;" vertex="1" parent="WIyWlLk6GJQsqaUBKTNV-1">
          <mxGeometry x="560" y="230" width="120" height="60" as="geometry" />
        </mxCell>
        <mxCell id="uNaetu2Uj4Z3SI4mFYwL-86" value="" style="edgeStyle=orthogonalEdgeStyle;rounded=0;orthogonalLoop=1;jettySize=auto;html=1;" edge="1" parent="WIyWlLk6GJQsqaUBKTNV-1" source="uNaetu2Uj4Z3SI4mFYwL-83" target="uNaetu2Uj4Z3SI4mFYwL-85">
          <mxGeometry relative="1" as="geometry" />
        </mxCell>
        <mxCell id="uNaetu2Uj4Z3SI4mFYwL-83" value="OUTPUT&lt;br&gt;&quot;Option 1&quot;&lt;br&gt;EASY" style="shape=parallelogram;perimeter=parallelogramPerimeter;whiteSpace=wrap;html=1;fixedSize=1;strokeWidth=2;" vertex="1" parent="WIyWlLk6GJQsqaUBKTNV-1">
          <mxGeometry x="560" y="330" width="120" height="60" as="geometry" />
        </mxCell>
        <mxCell id="uNaetu2Uj4Z3SI4mFYwL-88" value="" style="edgeStyle=orthogonalEdgeStyle;rounded=0;orthogonalLoop=1;jettySize=auto;html=1;" edge="1" parent="WIyWlLk6GJQsqaUBKTNV-1" source="uNaetu2Uj4Z3SI4mFYwL-85" target="uNaetu2Uj4Z3SI4mFYwL-87">
          <mxGeometry relative="1" as="geometry" />
        </mxCell>
        <mxCell id="uNaetu2Uj4Z3SI4mFYwL-85" value="OUTPUT&lt;br&gt;&quot;Option 2&quot;&lt;br&gt;MEDIUM" style="shape=parallelogram;perimeter=parallelogramPerimeter;whiteSpace=wrap;html=1;fixedSize=1;strokeWidth=2;" vertex="1" parent="WIyWlLk6GJQsqaUBKTNV-1">
          <mxGeometry x="560" y="430" width="120" height="60" as="geometry" />
        </mxCell>
        <mxCell id="uNaetu2Uj4Z3SI4mFYwL-90" value="" style="edgeStyle=orthogonalEdgeStyle;rounded=0;orthogonalLoop=1;jettySize=auto;html=1;" edge="1" parent="WIyWlLk6GJQsqaUBKTNV-1" source="uNaetu2Uj4Z3SI4mFYwL-87" target="uNaetu2Uj4Z3SI4mFYwL-89">
          <mxGeometry relative="1" as="geometry" />
        </mxCell>
        <mxCell id="uNaetu2Uj4Z3SI4mFYwL-87" value="OUTPUT&lt;br&gt;&quot;Option 3&quot;&lt;br&gt;HARD" style="shape=parallelogram;perimeter=parallelogramPerimeter;whiteSpace=wrap;html=1;fixedSize=1;strokeWidth=2;" vertex="1" parent="WIyWlLk6GJQsqaUBKTNV-1">
          <mxGeometry x="560" y="530" width="120" height="60" as="geometry" />
        </mxCell>
        <mxCell id="uNaetu2Uj4Z3SI4mFYwL-92" value="" style="edgeStyle=orthogonalEdgeStyle;rounded=0;orthogonalLoop=1;jettySize=auto;html=1;" edge="1" parent="WIyWlLk6GJQsqaUBKTNV-1" source="uNaetu2Uj4Z3SI4mFYwL-89" target="uNaetu2Uj4Z3SI4mFYwL-91">
          <mxGeometry relative="1" as="geometry" />
        </mxCell>
        <mxCell id="uNaetu2Uj4Z3SI4mFYwL-89" value="OUTPUT&lt;br&gt;&quot;Option 4&quot;&lt;br&gt;HARDCORE" style="shape=parallelogram;perimeter=parallelogramPerimeter;whiteSpace=wrap;html=1;fixedSize=1;strokeWidth=2;" vertex="1" parent="WIyWlLk6GJQsqaUBKTNV-1">
          <mxGeometry x="560" y="630" width="120" height="60" as="geometry" />
        </mxCell>
        <mxCell id="uNaetu2Uj4Z3SI4mFYwL-94" value="" style="edgeStyle=orthogonalEdgeStyle;rounded=0;orthogonalLoop=1;jettySize=auto;html=1;" edge="1" parent="WIyWlLk6GJQsqaUBKTNV-1" source="uNaetu2Uj4Z3SI4mFYwL-91" target="uNaetu2Uj4Z3SI4mFYwL-93">
          <mxGeometry relative="1" as="geometry" />
        </mxCell>
        <mxCell id="uNaetu2Uj4Z3SI4mFYwL-91" value="OUTPUT&lt;br&gt;&quot;Option 5&quot;&lt;br&gt;NESTED MENU" style="shape=parallelogram;perimeter=parallelogramPerimeter;whiteSpace=wrap;html=1;fixedSize=1;strokeWidth=2;" vertex="1" parent="WIyWlLk6GJQsqaUBKTNV-1">
          <mxGeometry x="550" y="730" width="140" height="60" as="geometry" />
        </mxCell>
        <mxCell id="uNaetu2Uj4Z3SI4mFYwL-169" style="edgeStyle=orthogonalEdgeStyle;rounded=0;orthogonalLoop=1;jettySize=auto;html=1;" edge="1" parent="WIyWlLk6GJQsqaUBKTNV-1" source="uNaetu2Uj4Z3SI4mFYwL-93" target="uNaetu2Uj4Z3SI4mFYwL-110">
          <mxGeometry relative="1" as="geometry" />
        </mxCell>
        <mxCell id="uNaetu2Uj4Z3SI4mFYwL-93" value="OUTPUT&lt;br&gt;&quot;Option 6&quot;&lt;br&gt;EXIT" style="shape=parallelogram;perimeter=parallelogramPerimeter;whiteSpace=wrap;html=1;fixedSize=1;strokeWidth=2;" vertex="1" parent="WIyWlLk6GJQsqaUBKTNV-1">
          <mxGeometry x="560" y="830" width="120" height="60" as="geometry" />
        </mxCell>
        <mxCell id="uNaetu2Uj4Z3SI4mFYwL-99" value="END" style="strokeWidth=2;html=1;shape=mxgraph.flowchart.terminator;whiteSpace=wrap;" vertex="1" parent="WIyWlLk6GJQsqaUBKTNV-1">
          <mxGeometry x="-1480" y="2170" width="100" height="60" as="geometry" />
        </mxCell>
        <mxCell id="uNaetu2Uj4Z3SI4mFYwL-101" style="edgeStyle=orthogonalEdgeStyle;rounded=0;orthogonalLoop=1;jettySize=auto;html=1;" edge="1" parent="WIyWlLk6GJQsqaUBKTNV-1" source="uNaetu2Uj4Z3SI4mFYwL-100" target="uNaetu2Uj4Z3SI4mFYwL-78">
          <mxGeometry relative="1" as="geometry" />
        </mxCell>
        <mxCell id="uNaetu2Uj4Z3SI4mFYwL-100" value="INPUT&amp;nbsp;" style="html=1;strokeWidth=2;shape=manualInput;whiteSpace=wrap;rounded=1;size=26;arcSize=11;" vertex="1" parent="WIyWlLk6GJQsqaUBKTNV-1">
          <mxGeometry x="-1320" y="120" width="100" height="60" as="geometry" />
        </mxCell>
        <mxCell id="uNaetu2Uj4Z3SI4mFYwL-117" style="edgeStyle=orthogonalEdgeStyle;rounded=0;orthogonalLoop=1;jettySize=auto;html=1;exitX=0;exitY=0.5;exitDx=0;exitDy=0;exitPerimeter=0;entryX=0.5;entryY=0;entryDx=0;entryDy=0;entryPerimeter=0;" edge="1" parent="WIyWlLk6GJQsqaUBKTNV-1" source="uNaetu2Uj4Z3SI4mFYwL-110" target="uNaetu2Uj4Z3SI4mFYwL-111">
          <mxGeometry relative="1" as="geometry" />
        </mxCell>
        <mxCell id="uNaetu2Uj4Z3SI4mFYwL-131" value="" style="edgeStyle=orthogonalEdgeStyle;rounded=0;orthogonalLoop=1;jettySize=auto;html=1;" edge="1" parent="WIyWlLk6GJQsqaUBKTNV-1" source="uNaetu2Uj4Z3SI4mFYwL-110" target="uNaetu2Uj4Z3SI4mFYwL-130">
          <mxGeometry relative="1" as="geometry" />
        </mxCell>
        <mxCell id="uNaetu2Uj4Z3SI4mFYwL-110" value="MenuChoice&lt;br&gt;== 1" style="strokeWidth=2;html=1;shape=mxgraph.flowchart.decision;whiteSpace=wrap;" vertex="1" parent="WIyWlLk6GJQsqaUBKTNV-1">
          <mxGeometry x="570" y="1120" width="100" height="100" as="geometry" />
        </mxCell>
        <mxCell id="uNaetu2Uj4Z3SI4mFYwL-118" style="edgeStyle=orthogonalEdgeStyle;rounded=0;orthogonalLoop=1;jettySize=auto;html=1;exitX=0;exitY=0.5;exitDx=0;exitDy=0;exitPerimeter=0;entryX=0.5;entryY=0;entryDx=0;entryDy=0;entryPerimeter=0;" edge="1" parent="WIyWlLk6GJQsqaUBKTNV-1" source="uNaetu2Uj4Z3SI4mFYwL-111" target="uNaetu2Uj4Z3SI4mFYwL-112">
          <mxGeometry relative="1" as="geometry" />
        </mxCell>
        <mxCell id="uNaetu2Uj4Z3SI4mFYwL-133" value="" style="edgeStyle=orthogonalEdgeStyle;rounded=0;orthogonalLoop=1;jettySize=auto;html=1;" edge="1" parent="WIyWlLk6GJQsqaUBKTNV-1" source="uNaetu2Uj4Z3SI4mFYwL-111" target="uNaetu2Uj4Z3SI4mFYwL-132">
          <mxGeometry relative="1" as="geometry" />
        </mxCell>
        <mxCell id="uNaetu2Uj4Z3SI4mFYwL-111" value="MenuChoice&lt;br&gt;== 2" style="strokeWidth=2;html=1;shape=mxgraph.flowchart.decision;whiteSpace=wrap;" vertex="1" parent="WIyWlLk6GJQsqaUBKTNV-1">
          <mxGeometry x="360" y="1200" width="100" height="100" as="geometry" />
        </mxCell>
        <mxCell id="uNaetu2Uj4Z3SI4mFYwL-135" value="" style="edgeStyle=orthogonalEdgeStyle;rounded=0;orthogonalLoop=1;jettySize=auto;html=1;" edge="1" parent="WIyWlLk6GJQsqaUBKTNV-1" source="uNaetu2Uj4Z3SI4mFYwL-112" target="uNaetu2Uj4Z3SI4mFYwL-134">
          <mxGeometry relative="1" as="geometry" />
        </mxCell>
        <mxCell id="uNaetu2Uj4Z3SI4mFYwL-163" style="edgeStyle=orthogonalEdgeStyle;rounded=0;orthogonalLoop=1;jettySize=auto;html=1;entryX=0.5;entryY=0;entryDx=0;entryDy=0;entryPerimeter=0;" edge="1" parent="WIyWlLk6GJQsqaUBKTNV-1" source="uNaetu2Uj4Z3SI4mFYwL-112" target="uNaetu2Uj4Z3SI4mFYwL-113">
          <mxGeometry relative="1" as="geometry" />
        </mxCell>
        <mxCell id="uNaetu2Uj4Z3SI4mFYwL-112" value="MenuChoice&lt;br&gt;== 3" style="strokeWidth=2;html=1;shape=mxgraph.flowchart.decision;whiteSpace=wrap;" vertex="1" parent="WIyWlLk6GJQsqaUBKTNV-1">
          <mxGeometry x="20" y="1280" width="100" height="100" as="geometry" />
        </mxCell>
        <mxCell id="uNaetu2Uj4Z3SI4mFYwL-122" style="edgeStyle=orthogonalEdgeStyle;rounded=0;orthogonalLoop=1;jettySize=auto;html=1;exitX=0;exitY=0.5;exitDx=0;exitDy=0;exitPerimeter=0;entryX=0.5;entryY=0;entryDx=0;entryDy=0;entryPerimeter=0;" edge="1" parent="WIyWlLk6GJQsqaUBKTNV-1" source="uNaetu2Uj4Z3SI4mFYwL-113" target="uNaetu2Uj4Z3SI4mFYwL-114">
          <mxGeometry relative="1" as="geometry" />
        </mxCell>
        <mxCell id="uNaetu2Uj4Z3SI4mFYwL-137" value="" style="edgeStyle=orthogonalEdgeStyle;rounded=0;orthogonalLoop=1;jettySize=auto;html=1;" edge="1" parent="WIyWlLk6GJQsqaUBKTNV-1" source="uNaetu2Uj4Z3SI4mFYwL-113" target="uNaetu2Uj4Z3SI4mFYwL-136">
          <mxGeometry relative="1" as="geometry" />
        </mxCell>
        <mxCell id="uNaetu2Uj4Z3SI4mFYwL-113" value="MenuChoice&lt;br&gt;== 4" style="strokeWidth=2;html=1;shape=mxgraph.flowchart.decision;whiteSpace=wrap;" vertex="1" parent="WIyWlLk6GJQsqaUBKTNV-1">
          <mxGeometry x="-320" y="1360" width="100" height="100" as="geometry" />
        </mxCell>
        <mxCell id="uNaetu2Uj4Z3SI4mFYwL-139" value="" style="edgeStyle=orthogonalEdgeStyle;rounded=0;orthogonalLoop=1;jettySize=auto;html=1;" edge="1" parent="WIyWlLk6GJQsqaUBKTNV-1" source="uNaetu2Uj4Z3SI4mFYwL-114" target="uNaetu2Uj4Z3SI4mFYwL-138">
          <mxGeometry relative="1" as="geometry" />
        </mxCell>
        <mxCell id="uNaetu2Uj4Z3SI4mFYwL-167" style="edgeStyle=orthogonalEdgeStyle;rounded=0;orthogonalLoop=1;jettySize=auto;html=1;entryX=0.5;entryY=0;entryDx=0;entryDy=0;entryPerimeter=0;" edge="1" parent="WIyWlLk6GJQsqaUBKTNV-1" source="uNaetu2Uj4Z3SI4mFYwL-114" target="uNaetu2Uj4Z3SI4mFYwL-115">
          <mxGeometry relative="1" as="geometry" />
        </mxCell>
        <mxCell id="uNaetu2Uj4Z3SI4mFYwL-114" value="MenuChoice&lt;br&gt;== 5" style="strokeWidth=2;html=1;shape=mxgraph.flowchart.decision;whiteSpace=wrap;" vertex="1" parent="WIyWlLk6GJQsqaUBKTNV-1">
          <mxGeometry x="-690" y="1440" width="100" height="100" as="geometry" />
        </mxCell>
        <mxCell id="uNaetu2Uj4Z3SI4mFYwL-141" value="" style="edgeStyle=orthogonalEdgeStyle;rounded=0;orthogonalLoop=1;jettySize=auto;html=1;" edge="1" parent="WIyWlLk6GJQsqaUBKTNV-1" source="uNaetu2Uj4Z3SI4mFYwL-115" target="uNaetu2Uj4Z3SI4mFYwL-140">
          <mxGeometry relative="1" as="geometry" />
        </mxCell>
        <mxCell id="uNaetu2Uj4Z3SI4mFYwL-143" value="" style="edgeStyle=orthogonalEdgeStyle;rounded=0;orthogonalLoop=1;jettySize=auto;html=1;" edge="1" parent="WIyWlLk6GJQsqaUBKTNV-1" source="uNaetu2Uj4Z3SI4mFYwL-115" target="uNaetu2Uj4Z3SI4mFYwL-142">
          <mxGeometry relative="1" as="geometry" />
        </mxCell>
        <mxCell id="uNaetu2Uj4Z3SI4mFYwL-115" value="MenuChoice&lt;br&gt;== 6" style="strokeWidth=2;html=1;shape=mxgraph.flowchart.decision;whiteSpace=wrap;" vertex="1" parent="WIyWlLk6GJQsqaUBKTNV-1">
          <mxGeometry x="-1040" y="1520" width="100" height="100" as="geometry" />
        </mxCell>
        <mxCell id="uNaetu2Uj4Z3SI4mFYwL-124" value="False" style="text;html=1;align=center;verticalAlign=middle;resizable=0;points=[];autosize=1;strokeColor=none;fillColor=none;" vertex="1" parent="WIyWlLk6GJQsqaUBKTNV-1">
          <mxGeometry x="-30" y="1300" width="50" height="30" as="geometry" />
        </mxCell>
        <mxCell id="uNaetu2Uj4Z3SI4mFYwL-125" value="False" style="text;html=1;align=center;verticalAlign=middle;resizable=0;points=[];autosize=1;strokeColor=none;fillColor=none;" vertex="1" parent="WIyWlLk6GJQsqaUBKTNV-1">
          <mxGeometry x="-370" y="1380" width="50" height="30" as="geometry" />
        </mxCell>
        <mxCell id="uNaetu2Uj4Z3SI4mFYwL-126" value="False" style="text;html=1;align=center;verticalAlign=middle;resizable=0;points=[];autosize=1;strokeColor=none;fillColor=none;" vertex="1" parent="WIyWlLk6GJQsqaUBKTNV-1">
          <mxGeometry x="310" y="1220" width="50" height="30" as="geometry" />
        </mxCell>
        <mxCell id="uNaetu2Uj4Z3SI4mFYwL-127" value="False" style="text;html=1;align=center;verticalAlign=middle;resizable=0;points=[];autosize=1;strokeColor=none;fillColor=none;" vertex="1" parent="WIyWlLk6GJQsqaUBKTNV-1">
          <mxGeometry x="520" y="1140" width="50" height="30" as="geometry" />
        </mxCell>
        <mxCell id="uNaetu2Uj4Z3SI4mFYwL-128" value="False" style="text;html=1;align=center;verticalAlign=middle;resizable=0;points=[];autosize=1;strokeColor=none;fillColor=none;" vertex="1" parent="WIyWlLk6GJQsqaUBKTNV-1">
          <mxGeometry x="-740" y="1460" width="50" height="30" as="geometry" />
        </mxCell>
        <mxCell id="uNaetu2Uj4Z3SI4mFYwL-202" value="" style="edgeStyle=orthogonalEdgeStyle;rounded=0;orthogonalLoop=1;jettySize=auto;html=1;" edge="1" parent="WIyWlLk6GJQsqaUBKTNV-1" source="uNaetu2Uj4Z3SI4mFYwL-130" target="uNaetu2Uj4Z3SI4mFYwL-201">
          <mxGeometry relative="1" as="geometry" />
        </mxCell>
        <mxCell id="uNaetu2Uj4Z3SI4mFYwL-130" value="OUTPUT&lt;br&gt;&quot;You Choose:&lt;br&gt;Easy&quot;" style="shape=parallelogram;perimeter=parallelogramPerimeter;whiteSpace=wrap;html=1;fixedSize=1;strokeWidth=2;" vertex="1" parent="WIyWlLk6GJQsqaUBKTNV-1">
          <mxGeometry x="740" y="1300" width="120" height="60" as="geometry" />
        </mxCell>
        <mxCell id="uNaetu2Uj4Z3SI4mFYwL-204" value="" style="edgeStyle=orthogonalEdgeStyle;rounded=0;orthogonalLoop=1;jettySize=auto;html=1;" edge="1" parent="WIyWlLk6GJQsqaUBKTNV-1" source="uNaetu2Uj4Z3SI4mFYwL-132" target="uNaetu2Uj4Z3SI4mFYwL-203">
          <mxGeometry relative="1" as="geometry" />
        </mxCell>
        <mxCell id="uNaetu2Uj4Z3SI4mFYwL-132" value="OUTPUT&lt;br&gt;&quot;You Choose:&lt;br&gt;Medium&quot;" style="shape=parallelogram;perimeter=parallelogramPerimeter;whiteSpace=wrap;html=1;fixedSize=1;strokeWidth=2;" vertex="1" parent="WIyWlLk6GJQsqaUBKTNV-1">
          <mxGeometry x="480" y="1365" width="120" height="60" as="geometry" />
        </mxCell>
        <mxCell id="uNaetu2Uj4Z3SI4mFYwL-199" value="" style="edgeStyle=orthogonalEdgeStyle;rounded=0;orthogonalLoop=1;jettySize=auto;html=1;" edge="1" parent="WIyWlLk6GJQsqaUBKTNV-1" source="uNaetu2Uj4Z3SI4mFYwL-134" target="uNaetu2Uj4Z3SI4mFYwL-198">
          <mxGeometry relative="1" as="geometry" />
        </mxCell>
        <mxCell id="uNaetu2Uj4Z3SI4mFYwL-134" value="OUTPUT&lt;br&gt;&quot;You Choose:&lt;br&gt;Hard&quot;" style="shape=parallelogram;perimeter=parallelogramPerimeter;whiteSpace=wrap;html=1;fixedSize=1;strokeWidth=2;" vertex="1" parent="WIyWlLk6GJQsqaUBKTNV-1">
          <mxGeometry x="150" y="1460" width="120" height="60" as="geometry" />
        </mxCell>
        <mxCell id="uNaetu2Uj4Z3SI4mFYwL-196" value="" style="edgeStyle=orthogonalEdgeStyle;rounded=0;orthogonalLoop=1;jettySize=auto;html=1;" edge="1" parent="WIyWlLk6GJQsqaUBKTNV-1" source="uNaetu2Uj4Z3SI4mFYwL-136" target="uNaetu2Uj4Z3SI4mFYwL-195">
          <mxGeometry relative="1" as="geometry" />
        </mxCell>
        <mxCell id="uNaetu2Uj4Z3SI4mFYwL-136" value="OUTPUT&lt;br&gt;&quot;You Choose:&lt;br&gt;Hardcore&quot;" style="shape=parallelogram;perimeter=parallelogramPerimeter;whiteSpace=wrap;html=1;fixedSize=1;strokeWidth=2;" vertex="1" parent="WIyWlLk6GJQsqaUBKTNV-1">
          <mxGeometry x="-180" y="1520" width="120" height="60" as="geometry" />
        </mxCell>
        <mxCell id="uNaetu2Uj4Z3SI4mFYwL-217" style="edgeStyle=orthogonalEdgeStyle;rounded=0;orthogonalLoop=1;jettySize=auto;html=1;" edge="1" parent="WIyWlLk6GJQsqaUBKTNV-1" source="uNaetu2Uj4Z3SI4mFYwL-138" target="uNaetu2Uj4Z3SI4mFYwL-192">
          <mxGeometry relative="1" as="geometry" />
        </mxCell>
        <mxCell id="uNaetu2Uj4Z3SI4mFYwL-138" value="OUTPUT&lt;br&gt;NESTED MENU" style="shape=parallelogram;perimeter=parallelogramPerimeter;whiteSpace=wrap;html=1;fixedSize=1;strokeWidth=2;" vertex="1" parent="WIyWlLk6GJQsqaUBKTNV-1">
          <mxGeometry x="-563" y="1560" width="150" height="60" as="geometry" />
        </mxCell>
        <mxCell id="uNaetu2Uj4Z3SI4mFYwL-214" style="edgeStyle=orthogonalEdgeStyle;rounded=0;orthogonalLoop=1;jettySize=auto;html=1;entryX=0.915;entryY=0.721;entryDx=0;entryDy=0;entryPerimeter=0;" edge="1" parent="WIyWlLk6GJQsqaUBKTNV-1" source="uNaetu2Uj4Z3SI4mFYwL-140" target="uNaetu2Uj4Z3SI4mFYwL-179">
          <mxGeometry relative="1" as="geometry">
            <Array as="points">
              <mxPoint x="-880" y="1760" />
              <mxPoint x="-990" y="1760" />
            </Array>
          </mxGeometry>
        </mxCell>
        <mxCell id="uNaetu2Uj4Z3SI4mFYwL-140" value="OUTPUT&lt;br&gt;&quot;You Choose:&lt;br&gt;EXIT&quot;" style="shape=parallelogram;perimeter=parallelogramPerimeter;whiteSpace=wrap;html=1;fixedSize=1;strokeWidth=2;" vertex="1" parent="WIyWlLk6GJQsqaUBKTNV-1">
          <mxGeometry x="-930" y="1630" width="120" height="60" as="geometry" />
        </mxCell>
        <mxCell id="uNaetu2Uj4Z3SI4mFYwL-213" style="edgeStyle=orthogonalEdgeStyle;rounded=0;orthogonalLoop=1;jettySize=auto;html=1;entryX=0.041;entryY=0.654;entryDx=0;entryDy=0;entryPerimeter=0;" edge="1" parent="WIyWlLk6GJQsqaUBKTNV-1" source="uNaetu2Uj4Z3SI4mFYwL-142" target="uNaetu2Uj4Z3SI4mFYwL-179">
          <mxGeometry relative="1" as="geometry">
            <Array as="points">
              <mxPoint x="-1090" y="1760" />
              <mxPoint x="-990" y="1760" />
            </Array>
          </mxGeometry>
        </mxCell>
        <mxCell id="uNaetu2Uj4Z3SI4mFYwL-142" value="OUTPUT&lt;br&gt;&quot;Invalid Option&quot;" style="shape=parallelogram;perimeter=parallelogramPerimeter;whiteSpace=wrap;html=1;fixedSize=1;strokeWidth=2;" vertex="1" parent="WIyWlLk6GJQsqaUBKTNV-1">
          <mxGeometry x="-1170" y="1630" width="120" height="60" as="geometry" />
        </mxCell>
        <mxCell id="uNaetu2Uj4Z3SI4mFYwL-144" value="False" style="text;html=1;align=center;verticalAlign=middle;resizable=0;points=[];autosize=1;strokeColor=none;fillColor=none;" vertex="1" parent="WIyWlLk6GJQsqaUBKTNV-1">
          <mxGeometry x="-1090" y="1540" width="50" height="30" as="geometry" />
        </mxCell>
        <mxCell id="uNaetu2Uj4Z3SI4mFYwL-145" value="True" style="text;html=1;align=center;verticalAlign=middle;resizable=0;points=[];autosize=1;strokeColor=none;fillColor=none;" vertex="1" parent="WIyWlLk6GJQsqaUBKTNV-1">
          <mxGeometry x="670" y="1140" width="50" height="30" as="geometry" />
        </mxCell>
        <mxCell id="uNaetu2Uj4Z3SI4mFYwL-146" value="True" style="text;html=1;align=center;verticalAlign=middle;resizable=0;points=[];autosize=1;strokeColor=none;fillColor=none;" vertex="1" parent="WIyWlLk6GJQsqaUBKTNV-1">
          <mxGeometry x="460" y="1220" width="50" height="30" as="geometry" />
        </mxCell>
        <mxCell id="uNaetu2Uj4Z3SI4mFYwL-147" value="True" style="text;html=1;align=center;verticalAlign=middle;resizable=0;points=[];autosize=1;strokeColor=none;fillColor=none;" vertex="1" parent="WIyWlLk6GJQsqaUBKTNV-1">
          <mxGeometry x="120" y="1300" width="50" height="30" as="geometry" />
        </mxCell>
        <mxCell id="uNaetu2Uj4Z3SI4mFYwL-148" value="True" style="text;html=1;align=center;verticalAlign=middle;resizable=0;points=[];autosize=1;strokeColor=none;fillColor=none;" vertex="1" parent="WIyWlLk6GJQsqaUBKTNV-1">
          <mxGeometry x="-220" y="1380" width="50" height="30" as="geometry" />
        </mxCell>
        <mxCell id="uNaetu2Uj4Z3SI4mFYwL-149" value="True" style="text;html=1;align=center;verticalAlign=middle;resizable=0;points=[];autosize=1;strokeColor=none;fillColor=none;" vertex="1" parent="WIyWlLk6GJQsqaUBKTNV-1">
          <mxGeometry x="-590" y="1460" width="50" height="30" as="geometry" />
        </mxCell>
        <mxCell id="uNaetu2Uj4Z3SI4mFYwL-150" value="True" style="text;html=1;align=center;verticalAlign=middle;resizable=0;points=[];autosize=1;strokeColor=none;fillColor=none;" vertex="1" parent="WIyWlLk6GJQsqaUBKTNV-1">
          <mxGeometry x="-940" y="1540" width="50" height="30" as="geometry" />
        </mxCell>
        <mxCell id="uNaetu2Uj4Z3SI4mFYwL-215" style="edgeStyle=orthogonalEdgeStyle;rounded=0;orthogonalLoop=1;jettySize=auto;html=1;entryX=0.53;entryY=0.355;entryDx=0;entryDy=0;entryPerimeter=0;" edge="1" parent="WIyWlLk6GJQsqaUBKTNV-1" source="uNaetu2Uj4Z3SI4mFYwL-179" target="uNaetu2Uj4Z3SI4mFYwL-192">
          <mxGeometry relative="1" as="geometry" />
        </mxCell>
        <mxCell id="uNaetu2Uj4Z3SI4mFYwL-179" value="" style="shape=waypoint;sketch=0;size=6;pointerEvents=1;points=[];fillColor=default;resizable=0;rotatable=0;perimeter=centerPerimeter;snapToPoint=1;strokeWidth=2;" vertex="1" parent="WIyWlLk6GJQsqaUBKTNV-1">
          <mxGeometry x="-1000" y="1800" width="20" height="20" as="geometry" />
        </mxCell>
        <mxCell id="uNaetu2Uj4Z3SI4mFYwL-218" style="edgeStyle=orthogonalEdgeStyle;rounded=0;orthogonalLoop=1;jettySize=auto;html=1;entryX=0.289;entryY=1.114;entryDx=0;entryDy=0;entryPerimeter=0;" edge="1" parent="WIyWlLk6GJQsqaUBKTNV-1" source="uNaetu2Uj4Z3SI4mFYwL-192" target="uNaetu2Uj4Z3SI4mFYwL-195">
          <mxGeometry relative="1" as="geometry">
            <Array as="points">
              <mxPoint x="-488" y="1870" />
            </Array>
          </mxGeometry>
        </mxCell>
        <mxCell id="uNaetu2Uj4Z3SI4mFYwL-192" value="" style="shape=waypoint;sketch=0;size=6;pointerEvents=1;points=[];fillColor=default;resizable=0;rotatable=0;perimeter=centerPerimeter;snapToPoint=1;strokeWidth=2;" vertex="1" parent="WIyWlLk6GJQsqaUBKTNV-1">
          <mxGeometry x="-498" y="1800" width="20" height="20" as="geometry" />
        </mxCell>
        <mxCell id="uNaetu2Uj4Z3SI4mFYwL-219" style="edgeStyle=orthogonalEdgeStyle;rounded=0;orthogonalLoop=1;jettySize=auto;html=1;entryX=0.665;entryY=0.976;entryDx=0;entryDy=0;entryPerimeter=0;" edge="1" parent="WIyWlLk6GJQsqaUBKTNV-1" source="uNaetu2Uj4Z3SI4mFYwL-195" target="uNaetu2Uj4Z3SI4mFYwL-198">
          <mxGeometry relative="1" as="geometry">
            <Array as="points">
              <mxPoint x="-120" y="1950" />
            </Array>
          </mxGeometry>
        </mxCell>
        <mxCell id="uNaetu2Uj4Z3SI4mFYwL-195" value="" style="shape=waypoint;sketch=0;size=6;pointerEvents=1;points=[];fillColor=default;resizable=0;rotatable=0;perimeter=centerPerimeter;snapToPoint=1;strokeWidth=2;" vertex="1" parent="WIyWlLk6GJQsqaUBKTNV-1">
          <mxGeometry x="-130" y="1860" width="20" height="20" as="geometry" />
        </mxCell>
        <mxCell id="uNaetu2Uj4Z3SI4mFYwL-220" style="edgeStyle=orthogonalEdgeStyle;rounded=0;orthogonalLoop=1;jettySize=auto;html=1;entryX=0.639;entryY=0.515;entryDx=0;entryDy=0;entryPerimeter=0;" edge="1" parent="WIyWlLk6GJQsqaUBKTNV-1" source="uNaetu2Uj4Z3SI4mFYwL-198" target="uNaetu2Uj4Z3SI4mFYwL-203">
          <mxGeometry relative="1" as="geometry">
            <Array as="points">
              <mxPoint x="210" y="2020" />
            </Array>
          </mxGeometry>
        </mxCell>
        <mxCell id="uNaetu2Uj4Z3SI4mFYwL-198" value="" style="shape=waypoint;sketch=0;size=6;pointerEvents=1;points=[];fillColor=default;resizable=0;rotatable=0;perimeter=centerPerimeter;snapToPoint=1;strokeWidth=2;" vertex="1" parent="WIyWlLk6GJQsqaUBKTNV-1">
          <mxGeometry x="200" y="1940" width="20" height="20" as="geometry" />
        </mxCell>
        <mxCell id="uNaetu2Uj4Z3SI4mFYwL-225" style="edgeStyle=orthogonalEdgeStyle;rounded=0;orthogonalLoop=1;jettySize=auto;html=1;entryX=0.5;entryY=1;entryDx=0;entryDy=0;entryPerimeter=0;" edge="1" parent="WIyWlLk6GJQsqaUBKTNV-1" source="uNaetu2Uj4Z3SI4mFYwL-201" target="uNaetu2Uj4Z3SI4mFYwL-78">
          <mxGeometry relative="1" as="geometry" />
        </mxCell>
        <mxCell id="uNaetu2Uj4Z3SI4mFYwL-201" value="" style="shape=waypoint;sketch=0;size=6;pointerEvents=1;points=[];fillColor=default;resizable=0;rotatable=0;perimeter=centerPerimeter;snapToPoint=1;strokeWidth=2;" vertex="1" parent="WIyWlLk6GJQsqaUBKTNV-1">
          <mxGeometry x="790" y="2130" width="20" height="20" as="geometry" />
        </mxCell>
        <mxCell id="uNaetu2Uj4Z3SI4mFYwL-223" style="edgeStyle=orthogonalEdgeStyle;rounded=0;orthogonalLoop=1;jettySize=auto;html=1;entryX=0.72;entryY=0.697;entryDx=0;entryDy=0;entryPerimeter=0;" edge="1" parent="WIyWlLk6GJQsqaUBKTNV-1" source="uNaetu2Uj4Z3SI4mFYwL-203" target="uNaetu2Uj4Z3SI4mFYwL-201">
          <mxGeometry relative="1" as="geometry" />
        </mxCell>
        <mxCell id="uNaetu2Uj4Z3SI4mFYwL-203" value="" style="shape=waypoint;sketch=0;size=6;pointerEvents=1;points=[];fillColor=default;resizable=0;rotatable=0;perimeter=centerPerimeter;snapToPoint=1;strokeWidth=2;" vertex="1" parent="WIyWlLk6GJQsqaUBKTNV-1">
          <mxGeometry x="530" y="2010" width="20" height="20" as="geometry" />
        </mxCell>
      </root>
    </mxGraphModel>
  </diagram>
</mxfile>
